<svg width="127" height="14" viewBox="0 0 127 14" fill="none" xmlns="http://www.w3.org/2000/svg">
<path d="M6 1L7.80568 4.5147L11.7063 5.1459L8.92165 7.9493L9.52671 11.8541L6 10.072L2.47329 11.8541L3.07835 7.9493L0.293661 5.1459L4.19432 4.5147L6 1Z" fill="#F2C94C"/>
<path d="M19 1L20.8057 4.5147L24.7063 5.1459L21.9216 7.9493L22.5267 11.8541L19 10.072L15.4733 11.8541L16.0784 7.9493L13.2937 5.1459L17.1943 4.5147L19 1Z" fill="#F2C94C"/>
<path d="M32 1L33.8057 4.5147L37.7063 5.1459L34.9216 7.9493L35.5267 11.8541L32 10.072L28.4733 11.8541L29.0784 7.9493L26.2937 5.1459L30.1943 4.5147L32 1Z" fill="#F2C94C"/>
<path d="M45 1L46.8057 4.5147L50.7063 5.1459L47.9216 7.9493L48.5267 11.8541L45 10.072L41.4733 11.8541L42.0784 7.9493L39.2937 5.1459L43.1943 4.5147L45 1Z" fill="#F2C94C"/>
<path d="M58 1L59.8057 4.5147L63.7063 5.1459L60.9216 7.9493L61.5267 11.8541L58 10.072L54.4733 11.8541L55.0784 7.9493L52.2937 5.1459L56.1943 4.5147L58 1Z" fill="#EEEDF5"/>
<path fill-rule="evenodd" clip-rule="evenodd" d="M54.5 11.8406V11.6817L54.4733 11.8541L54.5 11.8406ZM54.5 7.36706V4.78887L52.2937 5.1459L54.5 7.36706Z" fill="#F2C94C"/>
<path d="M73.4912 11H72.7002V5.91211C72.7002 5.48893 72.7132 5.08854 72.7393 4.71094C72.6709 4.7793 72.5944 4.85091 72.5098 4.92578C72.4251 5.00065 72.0378 5.31803 71.3477 5.87793L70.918 5.32129L72.8076 3.86133H73.4912V11ZM77.4316 9.83789L77.5049 9.9502C77.4202 10.2757 77.2982 10.6533 77.1387 11.083C76.9792 11.516 76.8132 11.918 76.6406 12.2891H76.0303C76.1182 11.9505 76.2142 11.5322 76.3184 11.0342C76.4258 10.5361 76.5007 10.1374 76.543 9.83789H77.4316ZM81.665 11H80.874V5.91211C80.874 5.48893 80.887 5.08854 80.9131 4.71094C80.8447 4.7793 80.7682 4.85091 80.6836 4.92578C80.599 5.00065 80.2116 5.31803 79.5215 5.87793L79.0918 5.32129L80.9814 3.86133H81.665V11ZM88.0371 11L85.6152 4.67188H85.5762C85.6217 5.17318 85.6445 5.76888 85.6445 6.45898V11H84.8779V3.86133H86.1279L88.3887 9.75H88.4277L90.708 3.86133H91.9482V11H91.1182V6.40039C91.1182 5.87305 91.141 5.30013 91.1865 4.68164H91.1475L88.7061 11H88.0371ZM98.8281 5.55078C99.0658 5.55078 99.279 5.57031 99.4678 5.60938L99.3555 6.36133C99.1341 6.3125 98.9388 6.28809 98.7695 6.28809C98.3366 6.28809 97.9655 6.46387 97.6562 6.81543C97.3503 7.16699 97.1973 7.60482 97.1973 8.12891V11H96.3867V5.64844H97.0557L97.1484 6.63965H97.1875C97.3861 6.29134 97.6253 6.02279 97.9053 5.83398C98.1852 5.64518 98.4928 5.55078 98.8281 5.55078ZM102.729 11.0977C101.938 11.0977 101.313 10.8568 100.854 10.375C100.399 9.89323 100.171 9.22428 100.171 8.36816C100.171 7.50553 100.382 6.82031 100.806 6.3125C101.232 5.80469 101.803 5.55078 102.52 5.55078C103.19 5.55078 103.721 5.77214 104.111 6.21484C104.502 6.6543 104.697 7.23535 104.697 7.95801V8.4707H101.011C101.027 9.09896 101.185 9.57585 101.484 9.90137C101.787 10.2269 102.212 10.3896 102.759 10.3896C103.335 10.3896 103.905 10.2692 104.468 10.0283V10.751C104.181 10.8747 103.91 10.9626 103.652 11.0146C103.398 11.07 103.091 11.0977 102.729 11.0977ZM102.51 6.22949C102.08 6.22949 101.737 6.36947 101.479 6.64941C101.226 6.92936 101.076 7.31673 101.03 7.81152H103.828C103.828 7.30046 103.714 6.90983 103.486 6.63965C103.258 6.36621 102.933 6.22949 102.51 6.22949ZM107.256 11L105.225 5.64844H106.094L107.246 8.82227C107.507 9.56445 107.66 10.0462 107.705 10.2676H107.744C107.78 10.0951 107.892 9.73861 108.081 9.19824C108.273 8.65462 108.701 7.47135 109.365 5.64844H110.234L108.203 11H107.256ZM111.904 11H111.094V5.64844H111.904V11ZM111.025 4.19824C111.025 4.0127 111.071 3.8776 111.162 3.79297C111.253 3.70508 111.367 3.66113 111.504 3.66113C111.634 3.66113 111.746 3.70508 111.841 3.79297C111.935 3.88086 111.982 4.01595 111.982 4.19824C111.982 4.38053 111.935 4.51725 111.841 4.6084C111.746 4.69629 111.634 4.74023 111.504 4.74023C111.367 4.74023 111.253 4.69629 111.162 4.6084C111.071 4.51725 111.025 4.38053 111.025 4.19824ZM115.884 11.0977C115.093 11.0977 114.468 10.8568 114.009 10.375C113.553 9.89323 113.325 9.22428 113.325 8.36816C113.325 7.50553 113.537 6.82031 113.96 6.3125C114.386 5.80469 114.958 5.55078 115.674 5.55078C116.344 5.55078 116.875 5.77214 117.266 6.21484C117.656 6.6543 117.852 7.23535 117.852 7.95801V8.4707H114.165C114.181 9.09896 114.339 9.57585 114.639 9.90137C114.941 10.2269 115.366 10.3896 115.913 10.3896C116.489 10.3896 117.059 10.2692 117.622 10.0283V10.751C117.336 10.8747 117.064 10.9626 116.807 11.0146C116.553 11.07 116.245 11.0977 115.884 11.0977ZM115.664 6.22949C115.234 6.22949 114.891 6.36947 114.634 6.64941C114.38 6.92936 114.23 7.31673 114.185 7.81152H116.982C116.982 7.30046 116.868 6.90983 116.641 6.63965C116.413 6.36621 116.087 6.22949 115.664 6.22949ZM123.608 11L122.627 7.86035C122.565 7.66829 122.45 7.2321 122.28 6.55176H122.241C122.111 7.12142 121.997 7.56087 121.899 7.87012L120.889 11H119.951L118.491 5.64844H119.341C119.686 6.99284 119.948 8.0166 120.127 8.71973C120.309 9.42285 120.413 9.89648 120.439 10.1406H120.479C120.514 9.95508 120.571 9.71582 120.649 9.42285C120.731 9.12663 120.801 8.89225 120.859 8.71973L121.841 5.64844H122.72L123.677 8.71973C123.859 9.27962 123.983 9.75 124.048 10.1309H124.087C124.1 10.0137 124.134 9.83301 124.189 9.58887C124.248 9.34473 124.588 8.03125 125.21 5.64844H126.05L124.57 11H123.608Z" fill="#5C6A79"/>
</svg>
