<svg width="121" height="14" viewBox="0 0 121 14" fill="none" xmlns="http://www.w3.org/2000/svg">
<path d="M6 1L7.80568 4.5147L11.7063 5.1459L8.92165 7.9493L9.52671 11.8541L6 10.072L2.47329 11.8541L3.07835 7.9493L0.293661 5.1459L4.19432 4.5147L6 1Z" fill="#F2C94C"/>
<path d="M19 1L20.8057 4.5147L24.7063 5.1459L21.9216 7.9493L22.5267 11.8541L19 10.072L15.4733 11.8541L16.0784 7.9493L13.2937 5.1459L17.1943 4.5147L19 1Z" fill="#F2C94C"/>
<path d="M32 1L33.8057 4.5147L37.7063 5.1459L34.9216 7.9493L35.5267 11.8541L32 10.072L28.4733 11.8541L29.0784 7.9493L26.2937 5.1459L30.1943 4.5147L32 1Z" fill="#F2C94C"/>
<path d="M45 1L46.8057 4.5147L50.7063 5.1459L47.9216 7.9493L48.5267 11.8541L45 10.072L41.4733 11.8541L42.0784 7.9493L39.2937 5.1459L43.1943 4.5147L45 1Z" fill="#F2C94C"/>
<path d="M58 1L59.8057 4.5147L63.7063 5.1459L60.9216 7.9493L61.5267 11.8541L58 10.072L54.4733 11.8541L55.0784 7.9493L52.2937 5.1459L56.1943 4.5147L58 1Z" fill="#EEEDF5"/>
<path fill-rule="evenodd" clip-rule="evenodd" d="M57 2.94647V10.5773L54.4733 11.8541L55.0784 7.9493L52.2937 5.1459L56.1943 4.5147L57 2.94647Z" fill="#F2C94C"/>
<path d="M74.9121 5.54102C74.9121 5.99674 74.7835 6.36947 74.5264 6.65918C74.2725 6.94889 73.9111 7.14258 73.4424 7.24023V7.2793C74.0153 7.35091 74.4401 7.5332 74.7168 7.82617C74.9935 8.11914 75.1318 8.50326 75.1318 8.97852C75.1318 9.65885 74.8958 10.1829 74.4238 10.5508C73.9518 10.9154 73.2812 11.0977 72.4121 11.0977C72.0345 11.0977 71.6878 11.0684 71.3721 11.0098C71.0596 10.9544 70.7552 10.8551 70.459 10.7119V9.94043C70.7682 10.0934 71.097 10.2106 71.4453 10.292C71.7969 10.3701 72.1289 10.4092 72.4414 10.4092C73.6751 10.4092 74.292 9.92578 74.292 8.95898C74.292 8.0931 73.6117 7.66016 72.251 7.66016H71.5479V6.96191H72.2607C72.8174 6.96191 73.2585 6.83984 73.584 6.5957C73.9095 6.34831 74.0723 6.00651 74.0723 5.57031C74.0723 5.22201 73.9518 4.94857 73.7109 4.75C73.4733 4.55143 73.1494 4.45215 72.7393 4.45215C72.4268 4.45215 72.1322 4.49447 71.8555 4.5791C71.5788 4.66374 71.263 4.81999 70.9082 5.04785L70.498 4.50098C70.791 4.26986 71.1279 4.08919 71.5088 3.95898C71.8929 3.82552 72.2965 3.75879 72.7197 3.75879C73.4131 3.75879 73.9518 3.91829 74.3359 4.2373C74.7201 4.55306 74.9121 4.98763 74.9121 5.54102ZM76.2939 7.94824C76.2939 6.54525 76.5658 5.49707 77.1094 4.80371C77.6562 4.1071 78.4635 3.75879 79.5312 3.75879C79.8991 3.75879 80.1888 3.78971 80.4004 3.85156V4.5498C80.1497 4.46842 79.8633 4.42773 79.541 4.42773C78.776 4.42773 78.1917 4.66699 77.7881 5.14551C77.3844 5.62077 77.1631 6.36947 77.124 7.3916H77.1826C77.5407 6.83171 78.1071 6.55176 78.8818 6.55176C79.5231 6.55176 80.0277 6.74544 80.3955 7.13281C80.7666 7.52018 80.9521 8.0459 80.9521 8.70996C80.9521 9.45215 80.7487 10.0365 80.3418 10.4629C79.9382 10.8861 79.3913 11.0977 78.7012 11.0977C77.9622 11.0977 77.3763 10.821 76.9434 10.2676C76.5104 9.71094 76.2939 8.93783 76.2939 7.94824ZM78.6914 10.4092C79.1536 10.4092 79.5117 10.2643 79.7656 9.97461C80.0228 9.68164 80.1514 9.26009 80.1514 8.70996C80.1514 8.23796 80.0326 7.86686 79.7949 7.59668C79.5573 7.3265 79.2025 7.19141 78.7305 7.19141C78.4375 7.19141 78.1689 7.25163 77.9248 7.37207C77.6807 7.49251 77.4854 7.65853 77.3389 7.87012C77.1956 8.08171 77.124 8.30143 77.124 8.5293C77.124 8.86458 77.1891 9.17708 77.3193 9.4668C77.4495 9.75651 77.6335 9.986 77.8711 10.1553C78.112 10.3245 78.3854 10.4092 78.6914 10.4092ZM86.9629 9.35938H85.9033V11H85.127V9.35938H81.6553V8.65137L85.0439 3.82227H85.9033V8.62207H86.9629V9.35938ZM85.127 8.62207V6.24902C85.127 5.78353 85.1432 5.25781 85.1758 4.67188H85.1367C84.9805 4.98438 84.834 5.24316 84.6973 5.44824L82.4658 8.62207H85.127ZM93.0664 5.55078C93.304 5.55078 93.5173 5.57031 93.7061 5.60938L93.5938 6.36133C93.3724 6.3125 93.1771 6.28809 93.0078 6.28809C92.5749 6.28809 92.2038 6.46387 91.8945 6.81543C91.5885 7.16699 91.4355 7.60482 91.4355 8.12891V11H90.625V5.64844H91.2939L91.3867 6.63965H91.4258C91.6243 6.29134 91.8636 6.02279 92.1436 5.83398C92.4235 5.64518 92.7311 5.55078 93.0664 5.55078ZM96.9678 11.0977C96.1768 11.0977 95.5518 10.8568 95.0928 10.375C94.637 9.89323 94.4092 9.22428 94.4092 8.36816C94.4092 7.50553 94.6208 6.82031 95.0439 6.3125C95.4704 5.80469 96.0417 5.55078 96.7578 5.55078C97.4284 5.55078 97.959 5.77214 98.3496 6.21484C98.7402 6.6543 98.9355 7.23535 98.9355 7.95801V8.4707H95.249C95.2653 9.09896 95.4232 9.57585 95.7227 9.90137C96.0254 10.2269 96.4502 10.3896 96.9971 10.3896C97.5732 10.3896 98.1429 10.2692 98.7061 10.0283V10.751C98.4196 10.8747 98.1478 10.9626 97.8906 11.0146C97.6367 11.07 97.3291 11.0977 96.9678 11.0977ZM96.748 6.22949C96.3184 6.22949 95.9749 6.36947 95.7178 6.64941C95.4639 6.92936 95.3141 7.31673 95.2686 7.81152H98.0664C98.0664 7.30046 97.9525 6.90983 97.7246 6.63965C97.4967 6.36621 97.1712 6.22949 96.748 6.22949ZM101.494 11L99.4629 5.64844H100.332L101.484 8.82227C101.745 9.56445 101.898 10.0462 101.943 10.2676H101.982C102.018 10.0951 102.131 9.73861 102.319 9.19824C102.511 8.65462 102.939 7.47135 103.604 5.64844H104.473L102.441 11H101.494ZM106.143 11H105.332V5.64844H106.143V11ZM105.264 4.19824C105.264 4.0127 105.309 3.8776 105.4 3.79297C105.492 3.70508 105.605 3.66113 105.742 3.66113C105.872 3.66113 105.985 3.70508 106.079 3.79297C106.174 3.88086 106.221 4.01595 106.221 4.19824C106.221 4.38053 106.174 4.51725 106.079 4.6084C105.985 4.69629 105.872 4.74023 105.742 4.74023C105.605 4.74023 105.492 4.69629 105.4 4.6084C105.309 4.51725 105.264 4.38053 105.264 4.19824ZM110.122 11.0977C109.331 11.0977 108.706 10.8568 108.247 10.375C107.791 9.89323 107.563 9.22428 107.563 8.36816C107.563 7.50553 107.775 6.82031 108.198 6.3125C108.625 5.80469 109.196 5.55078 109.912 5.55078C110.583 5.55078 111.113 5.77214 111.504 6.21484C111.895 6.6543 112.09 7.23535 112.09 7.95801V8.4707H108.403C108.42 9.09896 108.577 9.57585 108.877 9.90137C109.18 10.2269 109.604 10.3896 110.151 10.3896C110.728 10.3896 111.297 10.2692 111.86 10.0283V10.751C111.574 10.8747 111.302 10.9626 111.045 11.0146C110.791 11.07 110.483 11.0977 110.122 11.0977ZM109.902 6.22949C109.473 6.22949 109.129 6.36947 108.872 6.64941C108.618 6.92936 108.468 7.31673 108.423 7.81152H111.221C111.221 7.30046 111.107 6.90983 110.879 6.63965C110.651 6.36621 110.326 6.22949 109.902 6.22949ZM117.847 11L116.865 7.86035C116.803 7.66829 116.688 7.2321 116.519 6.55176H116.479C116.349 7.12142 116.235 7.56087 116.138 7.87012L115.127 11H114.189L112.729 5.64844H113.579C113.924 6.99284 114.186 8.0166 114.365 8.71973C114.548 9.42285 114.652 9.89648 114.678 10.1406H114.717C114.753 9.95508 114.81 9.71582 114.888 9.42285C114.969 9.12663 115.039 8.89225 115.098 8.71973L116.079 5.64844H116.958L117.915 8.71973C118.097 9.27962 118.221 9.75 118.286 10.1309H118.325C118.338 10.0137 118.372 9.83301 118.428 9.58887C118.486 9.34473 118.826 8.03125 119.448 5.64844H120.288L118.809 11H117.847Z" fill="#5C6A79"/>
</svg>
