<svg width="121" height="14" viewBox="0 0 121 14" fill="none" xmlns="http://www.w3.org/2000/svg">
<path d="M6 1L7.80568 4.5147L11.7063 5.1459L8.92165 7.9493L9.52671 11.8541L6 10.072L2.47329 11.8541L3.07835 7.9493L0.293661 5.1459L4.19432 4.5147L6 1Z" fill="#F2C94C"/>
<path d="M19 1L20.8057 4.5147L24.7063 5.1459L21.9216 7.9493L22.5267 11.8541L19 10.072L15.4733 11.8541L16.0784 7.9493L13.2937 5.1459L17.1943 4.5147L19 1Z" fill="#F2C94C"/>
<path d="M32 1L33.8057 4.5147L37.7063 5.1459L34.9216 7.9493L35.5267 11.8541L32 10.072L28.4733 11.8541L29.0784 7.9493L26.2937 5.1459L30.1943 4.5147L32 1Z" fill="#F2C94C"/>
<path d="M45 1L46.8057 4.5147L50.7063 5.1459L47.9216 7.9493L48.5267 11.8541L45 10.072L41.4733 11.8541L42.0784 7.9493L39.2937 5.1459L43.1943 4.5147L45 1Z" fill="#F2C94C"/>
<path fill-rule="evenodd" clip-rule="evenodd" d="M47 4.54614L50.7063 5.1459L47.9216 7.9493L48.5267 11.8541L47 11.0826V4.54614Z" fill="#EEEDF5"/>
<path d="M58 1L59.8057 4.5147L63.7063 5.1459L60.9216 7.9493L61.5267 11.8541L58 10.072L54.4733 11.8541L55.0784 7.9493L52.2937 5.1459L56.1943 4.5147L58 1Z" fill="#EEEDF5"/>
<path d="M74.9072 5.52637C74.9072 5.84538 74.8454 6.12207 74.7217 6.35645C74.598 6.59082 74.4255 6.78288 74.2041 6.93262C73.9827 7.0791 73.7223 7.18164 73.4229 7.24023V7.2793C73.9893 7.35091 74.4141 7.5332 74.6973 7.82617C74.9837 8.11914 75.127 8.50326 75.127 8.97852C75.127 9.39193 75.0293 9.75814 74.834 10.0771C74.6419 10.3962 74.3457 10.6468 73.9453 10.8291C73.5482 11.0081 73.0387 11.0977 72.417 11.0977C72.0394 11.0977 71.6895 11.0667 71.3672 11.0049C71.0482 10.9463 70.7422 10.847 70.4492 10.707V9.94531C70.7454 10.0918 71.0677 10.2074 71.416 10.292C71.7643 10.3734 72.1012 10.4141 72.4268 10.4141C73.0778 10.4141 73.5482 10.2855 73.8379 10.0283C74.1276 9.7679 74.2725 9.41309 74.2725 8.96387C74.2725 8.65462 74.1911 8.4056 74.0283 8.2168C73.8688 8.02474 73.6377 7.88477 73.335 7.79688C73.0355 7.70573 72.6742 7.66016 72.251 7.66016H71.5381V6.9668H72.2559C72.6432 6.9668 72.972 6.90983 73.2422 6.7959C73.5124 6.68197 73.7174 6.52246 73.8574 6.31738C74.0007 6.10905 74.0723 5.86328 74.0723 5.58008C74.0723 5.21875 73.9518 4.94043 73.7109 4.74512C73.4701 4.54655 73.1429 4.44727 72.7295 4.44727C72.4756 4.44727 72.2445 4.47331 72.0361 4.52539C71.8278 4.57747 71.6325 4.64909 71.4502 4.74023C71.2679 4.83138 71.0856 4.93717 70.9033 5.05762L70.4932 4.50098C70.7536 4.29915 71.071 4.125 71.4453 3.97852C71.8197 3.83203 72.2445 3.75879 72.7197 3.75879C73.4489 3.75879 73.9958 3.9248 74.3604 4.25684C74.7249 4.58887 74.9072 5.01204 74.9072 5.52637ZM78.4717 6.63477C78.9567 6.63477 79.3783 6.71777 79.7363 6.88379C80.0944 7.04655 80.3711 7.28418 80.5664 7.59668C80.765 7.90918 80.8643 8.28841 80.8643 8.73438C80.8643 9.22266 80.7585 9.64421 80.5469 9.99902C80.3353 10.3506 80.0309 10.6224 79.6338 10.8145C79.2367 11.0033 78.7614 11.0977 78.208 11.0977C77.8369 11.0977 77.4919 11.0651 77.1729 11C76.8538 10.9349 76.5853 10.8372 76.3672 10.707V9.93555C76.6048 10.0788 76.8929 10.1927 77.2314 10.2773C77.57 10.362 77.8988 10.4043 78.2178 10.4043C78.5791 10.4043 78.8949 10.3473 79.165 10.2334C79.4385 10.1162 79.6501 9.94043 79.7998 9.70605C79.9528 9.46842 80.0293 9.17057 80.0293 8.8125C80.0293 8.33724 79.8828 7.97103 79.5898 7.71387C79.3001 7.45345 78.8411 7.32324 78.2129 7.32324C78.0111 7.32324 77.7897 7.33952 77.5488 7.37207C77.3079 7.40462 77.1094 7.44043 76.9531 7.47949L76.543 7.21094L76.8164 3.86133H80.3662V4.60352H77.5098L77.3291 6.75684C77.4528 6.73079 77.6123 6.70475 77.8076 6.67871C78.0029 6.64941 78.2243 6.63477 78.4717 6.63477ZM86.3525 5.52637C86.3525 5.84538 86.2907 6.12207 86.167 6.35645C86.0433 6.59082 85.8708 6.78288 85.6494 6.93262C85.4281 7.0791 85.1676 7.18164 84.8682 7.24023V7.2793C85.4346 7.35091 85.8594 7.5332 86.1426 7.82617C86.429 8.11914 86.5723 8.50326 86.5723 8.97852C86.5723 9.39193 86.4746 9.75814 86.2793 10.0771C86.0872 10.3962 85.791 10.6468 85.3906 10.8291C84.9935 11.0081 84.484 11.0977 83.8623 11.0977C83.4847 11.0977 83.1348 11.0667 82.8125 11.0049C82.4935 10.9463 82.1875 10.847 81.8945 10.707V9.94531C82.1908 10.0918 82.513 10.2074 82.8613 10.292C83.2096 10.3734 83.5465 10.4141 83.8721 10.4141C84.5231 10.4141 84.9935 10.2855 85.2832 10.0283C85.5729 9.7679 85.7178 9.41309 85.7178 8.96387C85.7178 8.65462 85.6364 8.4056 85.4736 8.2168C85.3141 8.02474 85.083 7.88477 84.7803 7.79688C84.4808 7.70573 84.1195 7.66016 83.6963 7.66016H82.9834V6.9668H83.7012C84.0885 6.9668 84.4173 6.90983 84.6875 6.7959C84.9577 6.68197 85.1628 6.52246 85.3027 6.31738C85.446 6.10905 85.5176 5.86328 85.5176 5.58008C85.5176 5.21875 85.3971 4.94043 85.1562 4.74512C84.9154 4.54655 84.5882 4.44727 84.1748 4.44727C83.9209 4.44727 83.6898 4.47331 83.4814 4.52539C83.2731 4.57747 83.0778 4.64909 82.8955 4.74023C82.7132 4.83138 82.5309 4.93717 82.3486 5.05762L81.9385 4.50098C82.1989 4.29915 82.5163 4.125 82.8906 3.97852C83.265 3.83203 83.6898 3.75879 84.165 3.75879C84.8942 3.75879 85.4411 3.9248 85.8057 4.25684C86.1702 4.58887 86.3525 5.01204 86.3525 5.52637ZM93.0518 5.55078C93.1592 5.55078 93.2715 5.55729 93.3887 5.57031C93.5059 5.58008 93.61 5.59473 93.7012 5.61426L93.5986 6.36621C93.5107 6.34342 93.4131 6.32552 93.3057 6.3125C93.1982 6.29948 93.0973 6.29297 93.0029 6.29297C92.7881 6.29297 92.5846 6.33691 92.3926 6.4248C92.2038 6.50944 92.0378 6.63314 91.8945 6.7959C91.7513 6.9554 91.639 7.14909 91.5576 7.37695C91.4762 7.60156 91.4355 7.85221 91.4355 8.12891V11H90.6201V5.64844H91.2939L91.3818 6.63477H91.416C91.5267 6.4362 91.6602 6.25553 91.8164 6.09277C91.9727 5.92676 92.1533 5.79492 92.3584 5.69727C92.5667 5.59961 92.7979 5.55078 93.0518 5.55078ZM96.7725 5.55078C97.2282 5.55078 97.6188 5.65169 97.9443 5.85352C98.2699 6.05534 98.5189 6.33854 98.6914 6.70312C98.8639 7.06445 98.9502 7.48763 98.9502 7.97266V8.47559H95.2539C95.2637 9.10384 95.4199 9.58236 95.7227 9.91113C96.0254 10.2399 96.4518 10.4043 97.002 10.4043C97.3405 10.4043 97.64 10.3734 97.9004 10.3115C98.1608 10.2497 98.431 10.1585 98.7109 10.0381V10.751C98.4408 10.8714 98.1722 10.9593 97.9053 11.0146C97.6416 11.07 97.3291 11.0977 96.9678 11.0977C96.4535 11.0977 96.0042 10.9935 95.6201 10.7852C95.2393 10.5736 94.943 10.2643 94.7314 9.85742C94.5199 9.45052 94.4141 8.95247 94.4141 8.36328C94.4141 7.78711 94.5101 7.28906 94.7021 6.86914C94.8975 6.44596 95.1709 6.12044 95.5225 5.89258C95.8773 5.66471 96.2939 5.55078 96.7725 5.55078ZM96.7627 6.21484C96.3298 6.21484 95.9847 6.35645 95.7275 6.63965C95.4704 6.92285 95.3174 7.31836 95.2686 7.82617H98.1006C98.0973 7.50716 98.0469 7.22721 97.9492 6.98633C97.8548 6.74219 97.71 6.55339 97.5146 6.41992C97.3193 6.2832 97.0687 6.21484 96.7627 6.21484ZM101.504 11L99.4727 5.64844H100.342L101.519 8.88574C101.6 9.1071 101.683 9.35124 101.768 9.61816C101.852 9.88509 101.911 10.0999 101.943 10.2627H101.978C102.017 10.0999 102.082 9.88509 102.173 9.61816C102.264 9.34798 102.347 9.10384 102.422 8.88574L103.599 5.64844H104.468L102.432 11H101.504ZM106.138 5.64844V11H105.327V5.64844H106.138ZM105.742 3.64648C105.876 3.64648 105.99 3.69043 106.084 3.77832C106.182 3.86296 106.23 3.99642 106.23 4.17871C106.23 4.35775 106.182 4.49121 106.084 4.5791C105.99 4.66699 105.876 4.71094 105.742 4.71094C105.602 4.71094 105.485 4.66699 105.391 4.5791C105.299 4.49121 105.254 4.35775 105.254 4.17871C105.254 3.99642 105.299 3.86296 105.391 3.77832C105.485 3.69043 105.602 3.64648 105.742 3.64648ZM109.917 5.55078C110.373 5.55078 110.763 5.65169 111.089 5.85352C111.414 6.05534 111.663 6.33854 111.836 6.70312C112.008 7.06445 112.095 7.48763 112.095 7.97266V8.47559H108.398C108.408 9.10384 108.564 9.58236 108.867 9.91113C109.17 10.2399 109.596 10.4043 110.146 10.4043C110.485 10.4043 110.785 10.3734 111.045 10.3115C111.305 10.2497 111.576 10.1585 111.855 10.0381V10.751C111.585 10.8714 111.317 10.9593 111.05 11.0146C110.786 11.07 110.474 11.0977 110.112 11.0977C109.598 11.0977 109.149 10.9935 108.765 10.7852C108.384 10.5736 108.088 10.2643 107.876 9.85742C107.664 9.45052 107.559 8.95247 107.559 8.36328C107.559 7.78711 107.655 7.28906 107.847 6.86914C108.042 6.44596 108.315 6.12044 108.667 5.89258C109.022 5.66471 109.438 5.55078 109.917 5.55078ZM109.907 6.21484C109.474 6.21484 109.129 6.35645 108.872 6.63965C108.615 6.92285 108.462 7.31836 108.413 7.82617H111.245C111.242 7.50716 111.191 7.22721 111.094 6.98633C110.999 6.74219 110.854 6.55339 110.659 6.41992C110.464 6.2832 110.213 6.21484 109.907 6.21484ZM117.827 10.9902L116.875 7.875C116.833 7.74154 116.792 7.61133 116.753 7.48438C116.717 7.35417 116.683 7.23047 116.65 7.11328C116.621 6.99284 116.593 6.88216 116.567 6.78125C116.545 6.67708 116.525 6.58757 116.509 6.5127H116.475C116.462 6.58757 116.444 6.67708 116.421 6.78125C116.398 6.88216 116.37 6.99284 116.338 7.11328C116.309 7.23372 116.276 7.36068 116.24 7.49414C116.204 7.62435 116.164 7.75618 116.118 7.88965L115.122 10.9902H114.209L112.734 5.63867H113.574L114.346 8.59277C114.398 8.78809 114.447 8.98177 114.492 9.17383C114.541 9.36263 114.582 9.54167 114.614 9.71094C114.65 9.87695 114.676 10.0218 114.692 10.1455H114.731C114.751 10.0641 114.772 9.96647 114.795 9.85254C114.821 9.73861 114.849 9.61816 114.878 9.49121C114.91 9.361 114.945 9.23242 114.98 9.10547C115.016 8.97526 115.052 8.85319 115.088 8.73926L116.074 5.63867H116.948L117.9 8.73438C117.949 8.89062 117.996 9.05339 118.042 9.22266C118.091 9.39193 118.135 9.55632 118.174 9.71582C118.213 9.87207 118.241 10.012 118.257 10.1357H118.296C118.309 10.0251 118.333 9.88835 118.369 9.72559C118.405 9.56283 118.446 9.38379 118.491 9.18848C118.54 8.99316 118.59 8.7946 118.643 8.59277L119.424 5.63867H120.249L118.77 10.9902H117.827Z" fill="#5C6A79"/>
</svg>
