<svg width="121" height="14" viewBox="0 0 121 14" fill="none" xmlns="http://www.w3.org/2000/svg">
<path d="M6 1L7.80568 4.5147L11.7063 5.1459L8.92165 7.9493L9.52671 11.8541L6 10.072L2.47329 11.8541L3.07835 7.9493L0.293661 5.1459L4.19432 4.5147L6 1Z" fill="#F2C94C"/>
<path d="M19 1L20.8057 4.5147L24.7063 5.1459L21.9216 7.9493L22.5267 11.8541L19 10.072L15.4733 11.8541L16.0784 7.9493L13.2937 5.1459L17.1943 4.5147L19 1Z" fill="#F2C94C"/>
<path d="M32 1L33.8057 4.5147L37.7063 5.1459L34.9216 7.9493L35.5267 11.8541L32 10.072L28.4733 11.8541L29.0784 7.9493L26.2937 5.1459L30.1943 4.5147L32 1Z" fill="#F2C94C"/>
<path d="M45 1L46.8057 4.5147L50.7063 5.1459L47.9216 7.9493L48.5267 11.8541L45 10.072L41.4733 11.8541L42.0784 7.9493L39.2937 5.1459L43.1943 4.5147L45 1Z" fill="#F2C94C"/>
<path d="M58 1L59.8057 4.5147L63.7063 5.1459L60.9216 7.9493L61.5267 11.8541L58 10.072L54.4733 11.8541L55.0784 7.9493L52.2937 5.1459L56.1943 4.5147L58 1Z" fill="#EEEDF5"/>
<path d="M75.1807 11H70.4883V10.3018L72.3682 8.41211C72.9411 7.83268 73.3187 7.41927 73.501 7.17188C73.6833 6.92448 73.82 6.68359 73.9111 6.44922C74.0023 6.21484 74.0479 5.96257 74.0479 5.69238C74.0479 5.31152 73.9323 5.01042 73.7012 4.78906C73.4701 4.56445 73.1494 4.45215 72.7393 4.45215C72.443 4.45215 72.1615 4.50098 71.8945 4.59863C71.6309 4.69629 71.3363 4.8737 71.0107 5.13086L70.5811 4.5791C71.2386 4.03223 71.9548 3.75879 72.7295 3.75879C73.4001 3.75879 73.9258 3.93132 74.3066 4.27637C74.6875 4.61816 74.8779 5.07878 74.8779 5.6582C74.8779 6.11068 74.751 6.55827 74.4971 7.00098C74.2432 7.44368 73.7679 8.00358 73.0713 8.68066L71.5088 10.209V10.248H75.1807V11ZM78.4424 6.63965C79.1943 6.63965 79.7852 6.82682 80.2148 7.20117C80.6478 7.57227 80.8643 8.08171 80.8643 8.72949C80.8643 9.46842 80.6283 10.0479 80.1562 10.4678C79.6875 10.8877 79.0397 11.0977 78.2129 11.0977C77.4089 11.0977 76.7952 10.9691 76.3721 10.7119V9.93066C76.5999 10.0771 76.8831 10.1927 77.2217 10.2773C77.5602 10.3587 77.8939 10.3994 78.2227 10.3994C78.7956 10.3994 79.2399 10.2643 79.5557 9.99414C79.8747 9.72396 80.0342 9.33333 80.0342 8.82227C80.0342 7.82617 79.4238 7.32812 78.2031 7.32812C77.8939 7.32812 77.4805 7.37533 76.9629 7.46973L76.543 7.20117L76.8115 3.86133H80.3613V4.6084H77.5049L77.3242 6.75195C77.6986 6.67708 78.0713 6.63965 78.4424 6.63965ZM86.626 11H81.9336V10.3018L83.8135 8.41211C84.3864 7.83268 84.764 7.41927 84.9463 7.17188C85.1286 6.92448 85.2653 6.68359 85.3564 6.44922C85.4476 6.21484 85.4932 5.96257 85.4932 5.69238C85.4932 5.31152 85.3776 5.01042 85.1465 4.78906C84.9154 4.56445 84.5947 4.45215 84.1846 4.45215C83.8883 4.45215 83.6068 4.50098 83.3398 4.59863C83.0762 4.69629 82.7816 4.8737 82.4561 5.13086L82.0264 4.5791C82.6839 4.03223 83.4001 3.75879 84.1748 3.75879C84.8454 3.75879 85.3711 3.93132 85.752 4.27637C86.1328 4.61816 86.3232 5.07878 86.3232 5.6582C86.3232 6.11068 86.1963 6.55827 85.9424 7.00098C85.6885 7.44368 85.2132 8.00358 84.5166 8.68066L82.9541 10.209V10.248H86.626V11ZM93.0664 5.55078C93.304 5.55078 93.5173 5.57031 93.7061 5.60938L93.5938 6.36133C93.3724 6.3125 93.1771 6.28809 93.0078 6.28809C92.5749 6.28809 92.2038 6.46387 91.8945 6.81543C91.5885 7.16699 91.4355 7.60482 91.4355 8.12891V11H90.625V5.64844H91.2939L91.3867 6.63965H91.4258C91.6243 6.29134 91.8636 6.02279 92.1436 5.83398C92.4235 5.64518 92.7311 5.55078 93.0664 5.55078ZM96.9678 11.0977C96.1768 11.0977 95.5518 10.8568 95.0928 10.375C94.637 9.89323 94.4092 9.22428 94.4092 8.36816C94.4092 7.50553 94.6208 6.82031 95.0439 6.3125C95.4704 5.80469 96.0417 5.55078 96.7578 5.55078C97.4284 5.55078 97.959 5.77214 98.3496 6.21484C98.7402 6.6543 98.9355 7.23535 98.9355 7.95801V8.4707H95.249C95.2653 9.09896 95.4232 9.57585 95.7227 9.90137C96.0254 10.2269 96.4502 10.3896 96.9971 10.3896C97.5732 10.3896 98.1429 10.2692 98.7061 10.0283V10.751C98.4196 10.8747 98.1478 10.9626 97.8906 11.0146C97.6367 11.07 97.3291 11.0977 96.9678 11.0977ZM96.748 6.22949C96.3184 6.22949 95.9749 6.36947 95.7178 6.64941C95.4639 6.92936 95.3141 7.31673 95.2686 7.81152H98.0664C98.0664 7.30046 97.9525 6.90983 97.7246 6.63965C97.4967 6.36621 97.1712 6.22949 96.748 6.22949ZM101.494 11L99.4629 5.64844H100.332L101.484 8.82227C101.745 9.56445 101.898 10.0462 101.943 10.2676H101.982C102.018 10.0951 102.131 9.73861 102.319 9.19824C102.511 8.65462 102.939 7.47135 103.604 5.64844H104.473L102.441 11H101.494ZM106.143 11H105.332V5.64844H106.143V11ZM105.264 4.19824C105.264 4.0127 105.309 3.8776 105.4 3.79297C105.492 3.70508 105.605 3.66113 105.742 3.66113C105.872 3.66113 105.985 3.70508 106.079 3.79297C106.174 3.88086 106.221 4.01595 106.221 4.19824C106.221 4.38053 106.174 4.51725 106.079 4.6084C105.985 4.69629 105.872 4.74023 105.742 4.74023C105.605 4.74023 105.492 4.69629 105.4 4.6084C105.309 4.51725 105.264 4.38053 105.264 4.19824ZM110.122 11.0977C109.331 11.0977 108.706 10.8568 108.247 10.375C107.791 9.89323 107.563 9.22428 107.563 8.36816C107.563 7.50553 107.775 6.82031 108.198 6.3125C108.625 5.80469 109.196 5.55078 109.912 5.55078C110.583 5.55078 111.113 5.77214 111.504 6.21484C111.895 6.6543 112.09 7.23535 112.09 7.95801V8.4707H108.403C108.42 9.09896 108.577 9.57585 108.877 9.90137C109.18 10.2269 109.604 10.3896 110.151 10.3896C110.728 10.3896 111.297 10.2692 111.86 10.0283V10.751C111.574 10.8747 111.302 10.9626 111.045 11.0146C110.791 11.07 110.483 11.0977 110.122 11.0977ZM109.902 6.22949C109.473 6.22949 109.129 6.36947 108.872 6.64941C108.618 6.92936 108.468 7.31673 108.423 7.81152H111.221C111.221 7.30046 111.107 6.90983 110.879 6.63965C110.651 6.36621 110.326 6.22949 109.902 6.22949ZM117.847 11L116.865 7.86035C116.803 7.66829 116.688 7.2321 116.519 6.55176H116.479C116.349 7.12142 116.235 7.56087 116.138 7.87012L115.127 11H114.189L112.729 5.64844H113.579C113.924 6.99284 114.186 8.0166 114.365 8.71973C114.548 9.42285 114.652 9.89648 114.678 10.1406H114.717C114.753 9.95508 114.81 9.71582 114.888 9.42285C114.969 9.12663 115.039 8.89225 115.098 8.71973L116.079 5.64844H116.958L117.915 8.71973C118.097 9.27962 118.221 9.75 118.286 10.1309H118.325C118.338 10.0137 118.372 9.83301 118.428 9.58887C118.486 9.34473 118.826 8.03125 119.448 5.64844H120.288L118.809 11H117.847Z" fill="#5C6A79"/>
</svg>
